<?xml version="1.0" encoding="UTF-8" standalone="no"?>
<svg
   xmlns:dc="http://purl.org/dc/elements/1.1/"
   xmlns:cc="http://creativecommons.org/ns#"
   xmlns:rdf="http://www.w3.org/1999/02/22-rdf-syntax-ns#"
   xmlns:svg="http://www.w3.org/2000/svg"
   xmlns="http://www.w3.org/2000/svg"
   xmlns:xlink="http://www.w3.org/1999/xlink"
   xmlns:sodipodi="http://sodipodi.sourceforge.net/DTD/sodipodi-0.dtd"
   xmlns:inkscape="http://www.inkscape.org/namespaces/inkscape"
   version="1.1"
   width="375pt"
   height="375pt"
   viewBox="0 0 375 375"
   id="svg2"
   style="overflow:visible"
   sodipodi:docname="Volkswagen 2012-2019 Logo.svg"
   inkscape:version="1.0 (4035a4fb49, 2020-05-01)">
  <sodipodi:namedview
     inkscape:document-rotation="0"
     pagecolor="#ffffff"
     bordercolor="#666666"
     borderopacity="1"
     objecttolerance="10"
     gridtolerance="10"
     guidetolerance="10"
     inkscape:pageopacity="0"
     inkscape:pageshadow="2"
     inkscape:window-width="1920"
     inkscape:window-height="986"
     id="namedview49"
     showgrid="false"
     inkscape:zoom="0.5775907"
     inkscape:cx="411.132"
     inkscape:cy="310.58685"
     inkscape:window-x="-11"
     inkscape:window-y="-11"
     inkscape:window-maximized="1"
     inkscape:current-layer="svg2" />
  <metadata
     id="metadata125">
    <rdf:RDF>
      <cc:Work
         rdf:about="">
        <dc:format>image/svg+xml</dc:format>
        <dc:type
           rdf:resource="http://purl.org/dc/dcmitype/StillImage" />
        <dc:title />
      </cc:Work>
    </rdf:RDF>
  </metadata>
  <defs
     id="defs4">
    <linearGradient
       inkscape:collect="always"
       id="linearGradient999">
      <stop
         style="stop-color:#908986;stop-opacity:1"
         offset="0"
         id="stop989" />
      <stop
         style="stop-color:#fdfdfe;stop-opacity:1"
         offset="1"
         id="stop997" />
    </linearGradient>
    <linearGradient
       inkscape:collect="always"
       id="linearGradient985">
      <stop
         style="stop-color:#8f8885;stop-opacity:1"
         offset="0"
         id="stop975" />
      <stop
         style="stop-color:#fbfbfb;stop-opacity:1"
         offset="1"
         id="stop983" />
    </linearGradient>
    <linearGradient
       inkscape:collect="always"
       id="linearGradient971">
      <stop
         style="stop-color:#2c2729;stop-opacity:1"
         offset="0"
         id="stop961" />
      <stop
         style="stop-color:#867f7e;stop-opacity:1"
         offset="1"
         id="stop969" />
    </linearGradient>
    <linearGradient
       inkscape:collect="always"
       id="linearGradient953">
      <stop
         style="stop-color:#9e9896;stop-opacity:1"
         offset="0"
         id="stop949" />
      <stop
         id="stop957"
         offset="0.52516723"
         style="stop-color:#b5afae;stop-opacity:1" />
      <stop
         style="stop-color:#98928f;stop-opacity:1"
         offset="1"
         id="stop951" />
    </linearGradient>
    <linearGradient
       inkscape:collect="always"
       id="linearGradient947">
      <stop
         style="stop-color:#191617;stop-opacity:1"
         offset="0"
         id="stop937" />
      <stop
         style="stop-color:#8a8380;stop-opacity:1"
         offset="1"
         id="stop945" />
    </linearGradient>
    <linearGradient
       inkscape:collect="always"
       id="linearGradient931">
      <stop
         style="stop-color:#98928f;stop-opacity:1"
         offset="0"
         id="stop927" />
      <stop
         style="stop-color:#848587;stop-opacity:1"
         offset="1"
         id="stop929" />
    </linearGradient>
    <linearGradient
       inkscape:collect="always"
       id="linearGradient923">
      <stop
         style="stop-color:#342d2b;stop-opacity:1"
         offset="0"
         id="stop919" />
      <stop
         style="stop-color:#7b7371;stop-opacity:1"
         offset="1"
         id="stop921" />
    </linearGradient>
    <linearGradient
       inkscape:collect="always"
       id="linearGradient1459">
      <stop
         style="stop-color:#938d8b;stop-opacity:1"
         offset="0"
         id="stop1449" />
      <stop
         style="stop-color:#dddadb;stop-opacity:1"
         offset="1"
         id="stop1457" />
    </linearGradient>
    <linearGradient
       id="linearGradient1437"
       inkscape:collect="always">
      <stop
         id="stop1433"
         offset="0"
         style="stop-color:#f8f8f7;stop-opacity:1" />
      <stop
         style="stop-color:#d2d0d0;stop-opacity:1"
         offset="0.47338909"
         id="stop1443" />
      <stop
         style="stop-color:#a29fa0;stop-opacity:1"
         offset="0.60903132"
         id="stop1441" />
      <stop
         id="stop1445"
         offset="0.73935419"
         style="stop-color:#bcb9b9;stop-opacity:1" />
      <stop
         id="stop1435"
         offset="1"
         style="stop-color:#dddadb;stop-opacity:1" />
    </linearGradient>
    <linearGradient
       id="linearGradient1427"
       inkscape:collect="always">
      <stop
         id="stop1423"
         offset="0"
         style="stop-color:#6793c5;stop-opacity:1" />
      <stop
         style="stop-color:#316ba8;stop-opacity:1"
         offset="0.57573402"
         id="stop956" />
      <stop
         id="stop1425"
         offset="1"
         style="stop-color:#022155;stop-opacity:1" />
    </linearGradient>
    <linearGradient
       id="linearGradient1419"
       inkscape:collect="always">
      <stop
         id="stop1415"
         offset="0"
         style="stop-color:#eeefee;stop-opacity:1" />
      <stop
         id="stop1417"
         offset="1"
         style="stop-color:#a4a3a3;stop-opacity:1" />
    </linearGradient>
    <radialGradient
       cx="109.74"
       cy="345.80499"
       r="398.827"
       id="RadialGradient"
       gradientUnits="userSpaceOnUse"
       gradientTransform="rotate(-90,10e-4,225.008)">
      <stop
         id="stop84"
         style="stop-color:#365fa4;stop-opacity:1"
         offset="0" />
      <stop
         id="stop86"
         style="stop-color:#15224e;stop-opacity:1"
         offset="1" />
    </radialGradient>
    <radialGradient
       cx="0"
       cy="0"
       r="155.433"
       id="RadialGradient_1"
       gradientUnits="userSpaceOnUse"
       gradientTransform="matrix(-0.707108,-0.707108,0.707153,-0.707123,55.805,60.271)">
      <stop
         id="stop89"
         style="stop-color:#98b5dd;stop-opacity:1"
         offset="0" />
      <stop
         id="stop91"
         style="stop-color:#1c3f79;stop-opacity:1"
         offset="1" />
    </radialGradient>
    <linearGradient
       x1="0"
       y1="0"
       x2="266.84"
       y2="-266.841"
       id="LinearGradient"
       gradientUnits="userSpaceOnUse"
       gradientTransform="translate(95.55,360.155)">
      <stop
         id="stop94"
         style="stop-color:#000000;stop-opacity:1"
         offset="0" />
      <stop
         id="stop96"
         style="stop-color:#ffffff;stop-opacity:1"
         offset="1" />
    </linearGradient>
    <linearGradient
       x1="0"
       y1="0"
       x2="144.541"
       y2="-144.537"
       id="LinearGradient_1"
       gradientUnits="userSpaceOnUse"
       gradientTransform="translate(181.894,252.559)">
      <stop
         id="stop99"
         style="stop-color:#ffffff;stop-opacity:1"
         offset="0" />
      <stop
         id="stop101"
         style="stop-color:#9e9f9c;stop-opacity:1"
         offset="1" />
    </linearGradient>
    <radialGradient
       cx="109.74"
       cy="345.80499"
       r="398.827"
       id="radialGradient3142"
       xlink:href="#RadialGradient"
       gradientUnits="userSpaceOnUse"
       gradientTransform="rotate(-90,-225,225)" />
    <radialGradient
       cx="0"
       cy="0"
       r="155.433"
       id="radialGradient3144"
       xlink:href="#RadialGradient_1"
       gradientUnits="userSpaceOnUse"
       gradientTransform="matrix(-0.707108,-0.707108,0.707153,-0.707123,-169.188,-164.738)" />
    <linearGradient
       x1="0"
       y1="0"
       x2="176.04738"
       y2="-291.02704"
       id="linearGradient3215"
       xlink:href="#LinearGradient"
       gradientUnits="userSpaceOnUse"
       gradientTransform="matrix(0.96309444,0,0,-1,100.32646,85.045)" />
    <linearGradient
       x1="35.182873"
       y1="22.075529"
       x2="67.276649"
       y2="-183.16917"
       id="linearGradient3299"
       xlink:href="#LinearGradient_1"
       gradientUnits="userSpaceOnUse"
       gradientTransform="matrix(1,0,0,-1,181.8955,197.4375)" />
    <radialGradient
       cx="0"
       cy="0"
       r="155.433"
       id="radialGradient3321"
       xlink:href="#RadialGradient_1"
       gradientUnits="userSpaceOnUse"
       gradientTransform="matrix(-0.707108,-0.707108,0.707153,-0.707123,55.805,60.271)" />
    <radialGradient
       cx="109.74"
       cy="345.80499"
       r="398.827"
       id="radialGradient3325"
       xlink:href="#RadialGradient"
       gradientUnits="userSpaceOnUse"
       gradientTransform="rotate(-90,10e-4,225.008)" />
    <filter
       color-interpolation-filters="sRGB"
       id="filter4109">
      <feGaussianBlur
         id="feGaussianBlur4111"
         stdDeviation="3.5822399" />
    </filter>
    <filter
       color-interpolation-filters="sRGB"
       id="filter4163">
      <feGaussianBlur
         id="feGaussianBlur4165"
         stdDeviation="2.9569722" />
    </filter>
    <filter
       x="-0.10285715"
       y="-0.055384614"
       width="1.2057143"
       height="1.1107692"
       color-interpolation-filters="sRGB"
       id="filter4197">
      <feGaussianBlur
         id="feGaussianBlur4199"
         stdDeviation="2.5899841" />
    </filter>
    <linearGradient
       gradientTransform="matrix(0.18115327,0,0,0.18115327,120.82711,170.85689)"
       gradientUnits="userSpaceOnUse"
       y2="1063.8021"
       x2="1334.2604"
       y1="-910.54254"
       x1="-640.08435"
       id="linearGradient1421"
       xlink:href="#linearGradient1419"
       inkscape:collect="always" />
    <linearGradient
       gradientTransform="matrix(0.24153769,0,0,0.24153769,120.82711,170.85689)"
       gradientUnits="userSpaceOnUse"
       y2="709.9527"
       x2="278.12695"
       y1="-561.16406"
       x1="278.12695"
       id="linearGradient1439"
       xlink:href="#linearGradient1437"
       inkscape:collect="always" />
    <linearGradient
       gradientTransform="matrix(0.18115327,0,0,0.18115327,120.82711,170.85689)"
       gradientUnits="userSpaceOnUse"
       y2="244.53928"
       x2="544.29712"
       y1="269.33127"
       x1="487.95163"
       id="linearGradient1447"
       xlink:href="#linearGradient1459"
       inkscape:collect="always" />
    <linearGradient
       gradientTransform="matrix(0.18115327,0,0,0.18115327,120.82711,170.85689)"
       inkscape:collect="always"
       xlink:href="#linearGradient923"
       id="linearGradient925"
       x1="422.61719"
       y1="96.34082"
       x2="979.71875"
       y2="96.34082"
       gradientUnits="userSpaceOnUse" />
    <linearGradient
       gradientTransform="matrix(0.18115327,0,0,0.18115327,120.82711,170.85689)"
       inkscape:collect="always"
       xlink:href="#linearGradient931"
       id="linearGradient933"
       x1="-236.88867"
       y1="94.210938"
       x2="310.18164"
       y2="94.210938"
       gradientUnits="userSpaceOnUse" />
    <linearGradient
       gradientTransform="matrix(0.18115327,0,0,0.18115327,120.82711,170.85689)"
       inkscape:collect="always"
       xlink:href="#linearGradient947"
       id="linearGradient935"
       x1="-418.59338"
       y1="232.55188"
       x2="122.92029"
       y2="631.21228"
       gradientUnits="userSpaceOnUse" />
    <linearGradient
       gradientTransform="matrix(0.18115327,0,0,0.18115327,120.82711,170.85689)"
       inkscape:collect="always"
       xlink:href="#linearGradient953"
       id="linearGradient955"
       x1="154.58594"
       y1="809.6084"
       x2="580.40039"
       y2="809.6084"
       gradientUnits="userSpaceOnUse" />
    <linearGradient
       gradientTransform="matrix(0.18115327,0,0,0.18115327,120.82711,170.85689)"
       inkscape:collect="always"
       xlink:href="#linearGradient971"
       id="linearGradient959"
       x1="1139.5043"
       y1="242.51839"
       x2="653.00195"
       y2="761.4043"
       gradientUnits="userSpaceOnUse" />
    <linearGradient
       gradientTransform="matrix(0.18115327,0,0,0.18115327,120.82711,170.85689)"
       inkscape:collect="always"
       xlink:href="#linearGradient985"
       id="linearGradient973"
       x1="-408.62689"
       y1="83.054245"
       x2="56.476887"
       y2="644.50098"
       gradientUnits="userSpaceOnUse" />
    <linearGradient
       gradientTransform="matrix(0.18115327,0,0,0.18115327,120.82711,170.85689)"
       inkscape:collect="always"
       xlink:href="#linearGradient999"
       id="linearGradient987"
       x1="1126.2156"
       y1="69.765572"
       x2="634.53442"
       y2="681.0448"
       gradientUnits="userSpaceOnUse" />
    <filter
       inkscape:collect="always"
       style="color-interpolation-filters:sRGB"
       id="filter1031"
       x="-0.046026643"
       width="1.0920533"
       y="-0.046026643"
       height="1.0920533">
      <feGaussianBlur
         inkscape:collect="always"
         stdDeviation="24.124154"
         id="feGaussianBlur1033" />
    </filter>
    <radialGradient
       gradientTransform="matrix(0.30622267,0,0,0.24866588,119.43447,171.55048)"
       gradientUnits="userSpaceOnUse"
       r="746.69501"
       fy="-97.302902"
       fx="21.529612"
       cy="-97.302902"
       cx="21.529612"
       id="radialGradient951"
       xlink:href="#linearGradient1427"
       inkscape:collect="always" />
  </defs>
  <path
     sodipodi:nodetypes="sssssssss"
     id="path112-09"
     style="overflow:visible;opacity:1;fill:#000000;fill-opacity:1;stroke-width:0.587222;stroke-linecap:square;stroke-dashoffset:131.528;paint-order:stroke fill markers"
     d="M 187.50001,0 C 137.77191,2e-5 90.08056,19.75442 54.91751,54.9175 19.75443,90.08056 2e-5,137.77191 0,187.5 c 2e-5,49.7281 19.75443,97.41943 54.91751,132.58251 35.16305,35.16305 82.8544,54.91745 132.5825,54.91748 49.72807,-3e-5 97.41942,-19.75443 132.58247,-54.91751 C 355.24556,284.91943 374.99998,237.22807 375,187.5 374.99998,137.77191 355.24556,90.08056 320.08251,54.9175 284.91943,19.75442 237.2281,2e-5 187.50001,0 Z" />
  <path
     d="M 187.50001,0 A 187.50006,187.50006 0 0 0 10e-6,187.5 187.50006,187.50006 0 0 0 187.50001,375 187.50006,187.50006 0 0 0 375,187.5 187.50006,187.50006 0 0 0 187.50001,0 Z m 0,5.7739 A 181.72602,181.72602 0 0 1 369.22574,187.5 181.72602,181.72602 0 0 1 187.50001,369.2261 181.72602,181.72602 0 0 1 5.77391,187.5 181.72602,181.72602 0 0 1 187.50001,5.7739 Z"
     style="opacity:1;fill:url(#linearGradient1421);fill-opacity:1;stroke-width:0.587221;stroke-linecap:square;stroke-dashoffset:131.528;paint-order:stroke fill markers"
     id="path112" />
  <path
     sodipodi:nodetypes="sscssssss"
     id="path112-0"
     style="overflow:visible;opacity:1;fill:url(#radialGradient951);fill-opacity:1;stroke-width:0.564843;stroke-linecap:square;stroke-dashoffset:131.528;paint-order:stroke fill markers"
     d="M 187.50001,7.14501 C 139.66689,7.14502 93.7929,26.14666 59.96978,59.96978 26.14666,93.7929 7.14503,139.66689 7.14501,187.5 c 2e-5,47.83311 19.00166,93.7071 52.82478,127.53021 33.82312,33.82312 79.69711,52.82475 127.53022,52.82476 47.8331,-2e-5 93.70708,-19.00165 127.5302,-52.82477 C 348.85332,281.20709 367.85495,235.33311 367.85498,187.5 367.85495,139.66689 348.85333,93.79291 315.03022,59.96979 281.2071,26.14667 235.33312,7.14503 187.50001,7.14501 Z" />
  <path
     transform="matrix(0.18115327,0,0,0.18115327,120.82711,170.85689)"
     d="m 373.1582,-705.04688 c -7.02938,0.005 -14.05897,0.091 -21.08593,0.27735 -72.28582,1.88623 -144.30331,13.60423 -213.45508,34.74414 -23.09455,7.05018 -45.865856,15.15314 -68.228518,24.25977 -59.306666,35.29037 -114.513316,78.04457 -164.136719,127.66796 -157.270803,157.27079 -245.625003,370.57576 -245.625003,592.990238 1.4e-4,222.414492 88.3542,435.719702 245.625003,592.990232 C 28.408337,790.0393 184.3737,870.60542 352.15234,900.49805 c 14.40954,0.37744 28.83079,0.37087 43.24024,-0.0312 75.32612,-2.06784 150.34466,-14.82536 222.11914,-37.77735 70.34521,-22.46128 137.5571,-54.6936 199.10742,-95.48828 46.53444,-30.81757 89.8123,-66.53709 128.95313,-106.32617 -52.8376,40.24423 -110.65693,73.00206 -171.79688,97.55859 l 377.20901,-859.69531 c -4.1765,-16.31748 -8.8633,-32.50503 -14.0606,-48.52734 -14.5787,-44.96395 -33.1561,-88.62511 -55.4043,-130.32813 L 736.44141,492.25391 551.02344,88.402344 h -56.21875 -56.2168 L 262.93164,489.06641 -108.48242,-341.37891 c 25.487598,-37.21094 54.511734,-72.25396 86.855467,-104.59765 52.716533,-52.7166 112.607814,-96.6054 177.369143,-130.74219 L 441.54688,52.458984 H 551.13867 L 831.33203,-561.48242 c -21.95353,-15.25676 -44.66754,-29.42054 -68.03711,-42.40625 -62.51884,-34.77006 -129.71068,-61.11993 -199.19726,-78.12695 -62.41759,-15.28902 -126.67538,-23.03659 -190.93946,-23.03126 z m 126.08399,43.32032 c 68.19346,4e-5 135.4079,9.46863 199.89843,27.65429 l -201.19726,458.32032 -206.8418,-455.94532 c 66.99694,-19.73726 137.03689,-30.02925 208.14063,-30.02929 z m -692.5586,485.71094 414.83203,933.15039 C 131.37657,720.44023 48.526733,665.9115 -21.625,595.75977 -159.76781,457.61687 -237.37695,270.25595 -237.37695,74.892578 c 0,-86.389782 15.18588,-171.211464 44.06054,-250.908198 z m 688.1211,490.9707 214.00195,466.10351 c -67.428,20.01254 -137.95672,30.453 -209.56445,30.45313 -73.97774,-1.3e-4 -146.80494,-11.13928 -216.25,-32.46875 z"
     style="color:#000000;font-style:normal;font-variant:normal;font-weight:normal;font-stretch:normal;font-size:medium;line-height:normal;font-family:sans-serif;font-variant-ligatures:normal;font-variant-position:normal;font-variant-caps:normal;font-variant-numeric:normal;font-variant-alternates:normal;font-variant-east-asian:normal;font-feature-settings:normal;font-variation-settings:normal;text-indent:0;text-align:start;text-decoration:none;text-decoration-line:none;text-decoration-style:solid;text-decoration-color:#000000;letter-spacing:normal;word-spacing:normal;text-transform:none;writing-mode:lr-tb;direction:ltr;text-orientation:mixed;dominant-baseline:auto;baseline-shift:baseline;text-anchor:start;white-space:normal;shape-padding:0;shape-margin:0;inline-size:0;clip-rule:nonzero;display:inline;overflow:visible;visibility:visible;opacity:0.51632;isolation:auto;mix-blend-mode:normal;color-interpolation:sRGB;color-interpolation-filters:linearRGB;solid-color:#000000;solid-opacity:1;vector-effect:none;fill:#000000;fill-opacity:1;fill-rule:nonzero;stroke:none;stroke-width:9.726;stroke-linecap:square;stroke-linejoin:miter;stroke-miterlimit:4;stroke-dasharray:none;stroke-dashoffset:131.528;stroke-opacity:1;paint-order:stroke fill markers;filter:url(#filter1031);color-rendering:auto;image-rendering:auto;shape-rendering:auto;text-rendering:auto;enable-background:accumulate;stop-color:#000000"
     id="path1313-0" />
  <path
     id="path321"
     d="m 152.64393,307.31802 -3.81307,8.35464 c 12.58019,3.8639 25.77307,5.88179 39.17439,5.88182 12.97199,-3e-5 25.7485,-1.89135 37.96329,-5.51669 l -3.81554,-8.31005 c -10.94023,3.07499 -22.3952,4.65372 -34.14775,4.65373 -12.18785,-10e-6 -24.0558,-1.72494 -35.36132,-5.06345 z"
     style="overflow:visible;opacity:1;fill:#ffffff;fill-opacity:1;stroke-width:0.475781;stroke-linecap:square;stroke-dashoffset:131.528;paint-order:stroke fill markers" />
  <path
     id="path319"
     d="m 315.42181,270.84324 c -0.67529,1.04009 -1.36347,2.07252 -2.06486,3.09694 0.70139,-1.02442 1.38957,-2.05685 2.06486,-3.09694 z"
     style="overflow:visible;opacity:1;fill:#ffff00;stroke-width:0.475781;stroke-linecap:square;stroke-dashoffset:131.528;paint-order:stroke fill markers" />
  <path
     id="path317"
     d="m 62.546,142.66067 c -5.23073,14.43733 -7.98171,29.80305 -7.98171,45.45284 1e-5,35.39071 14.05915,69.33176 39.08417,94.35679 12.70821,12.70822 27.71673,22.58628 44.04572,29.23361 l -5.57117,-12.53248 c -11.6367,-5.89355 -22.39484,-13.68638 -31.94206,-23.23361 -23.56319,-23.56315 -36.44363,-54.50093 -36.44365,-87.82431 0,-11.23344 1.47745,-22.31138 4.36006,-32.96529 z"
     style="overflow:visible;opacity:1;fill:url(#linearGradient973);fill-opacity:1;stroke-width:0.475781;stroke-linecap:square;stroke-dashoffset:131.528;paint-order:stroke fill markers" />
  <path
     id="path315"
     d="m 312.79934,140.86718 -5.41621,12.3439 c 3.26676,11.21842 5.04115,22.923 5.04115,34.90243 0,33.32338 -13.03151,64.46529 -36.59472,88.02846 -9.75823,9.75824 -20.78206,17.64739 -32.7155,23.54426 l -5.37622,12.25297 c 16.55324,-6.64852 31.76593,-16.61064 44.62421,-29.4689 25.02499,-25.02503 39.08417,-58.96608 39.08417,-94.35679 0,-16.29967 -2.98466,-32.291 -8.64688,-47.24633 z"
     style="overflow:visible;opacity:1;fill:url(#linearGradient987);fill-opacity:1;stroke-width:0.475781;stroke-linecap:square;stroke-dashoffset:131.528;paint-order:stroke fill markers" />
  <path
     id="path313"
     d="m 313.35695,102.28685 c 0.70139,1.02441 1.38957,2.05685 2.06486,3.09694 -0.67529,-1.04009 -1.36347,-2.07253 -2.06486,-3.09694 z"
     style="overflow:visible;opacity:1;fill:#ffff00;stroke-width:0.475781;stroke-linecap:square;stroke-dashoffset:131.528;paint-order:stroke fill markers" />
  <path
     sodipodi:nodetypes="csccscc"
     d="m 125.77911,70.07199 c -11.73174,6.18399 -22.58122,14.1346 -32.131,23.68438 -5.85916,5.85916 -11.11697,12.20732 -15.73415,18.9482 l 9.80244,0.28305 c 3.27802,-4.74512 6.99894,-9.27432 11.44379,-13.71917 6.98508,-6.98508 14.60043,-12.65577 22.87804,-17.75003 z"
     style="overflow:visible;opacity:1;fill:#544d4f;fill-opacity:1;stroke-width:0.475781;stroke-linecap:square;stroke-dashoffset:131.528;paint-order:stroke fill markers"
     id="path311" />
  <path
     d="m 249.58038,69.7295 4.09506,11.07724 c 8.35471,5.17093 16.11457,11.40141 23.17488,18.46171 4.07068,4.07068 7.79266,8.39421 11.17064,12.93017 l 10.2854,0.81625 c -4.66793,-6.85616 -9.99553,-13.30973 -15.94431,-19.2585 -9.72636,-9.72635 -20.79997,-17.79522 -32.78167,-24.02687 z"
     style="overflow:visible;opacity:1;fill:#5f585a;fill-opacity:1;stroke-width:0.475781;stroke-linecap:square;stroke-dashoffset:131.528;paint-order:stroke fill markers"
     id="path309" />
  <path
     id="path307"
     d="m 272.28929,61.71984 c 1.03232,0.68836 2.05685,1.38977 3.07323,2.10413 -1.01638,-0.71436 -2.04091,-1.41577 -3.07323,-2.10413 z"
     style="overflow:visible;opacity:1;fill:#ffff00;stroke-width:0.475781;stroke-linecap:square;stroke-dashoffset:131.528;paint-order:stroke fill markers" />
  <path
     id="path305"
     d="m 103.72122,61.71984 c -1.03232,0.68836 -2.05685,1.38977 -3.07324,2.10413 1.01639,-0.71436 2.04092,-1.41577 3.07324,-2.10413 z"
     style="overflow:visible;opacity:1;fill:#ffff00;stroke-width:0.475781;stroke-linecap:square;stroke-dashoffset:131.528;paint-order:stroke fill markers" />
  <path
     id="path303"
     d="m 188.00525,54.67255 c -12.88066,0 -25.56865,1.86443 -37.70535,5.4399 l 3.25404,7.17254 c 11.10827,-3.16764 22.69451,-4.81754 34.45131,-4.81754 11.26213,0 22.36773,1.51424 33.04668,4.42587 l 3.16558,-7.21111 c -11.68266,-3.29439 -23.85879,-5.00965 -36.21226,-5.00966 z"
     style="overflow:visible;opacity:1;fill:#544d4f;fill-opacity:1;stroke-width:0.475781;stroke-linecap:square;stroke-dashoffset:131.528;paint-order:stroke fill markers" />
  <path
     id="path301"
     d="m 199.28664,36.61489 c 1.2471,0.0928 2.49176,0.20077 3.73381,0.3241 -1.24205,-0.12333 -2.48671,-0.23128 -3.73381,-0.3241 z"
     style="overflow:visible;opacity:1;fill:#ffff00;stroke-width:0.475781;stroke-linecap:square;stroke-dashoffset:131.528;paint-order:stroke fill markers" />
  <path
     id="path112-0-6-0"
     d="m 176.72386,36.61489 c -1.24709,0.0928 -2.49175,0.20077 -3.73381,0.3241 1.24206,-0.12333 2.48672,-0.23128 3.73381,-0.3241 z"
     style="overflow:visible;opacity:1;fill:#ffff00;stroke-width:0.475781;stroke-linecap:square;stroke-dashoffset:131.528;paint-order:stroke fill markers" />
  <path
     sodipodi:nodetypes="cscscssscccsccccsc"
     d="m 188.00525,35.31462 c -40.52441,2e-5 -79.39009,16.09862 -108.04518,44.75371 -28.65509,28.65508 -44.75369,67.52077 -44.7537,108.04518 1e-5,40.52441 16.09861,79.38977 44.7537,108.04483 28.65508,28.6551 67.52077,44.75368 108.04518,44.75371 40.52441,-3e-5 79.3901,-16.09861 108.04519,-44.75371 28.65509,-28.65509 44.75371,-67.52042 44.75371,-108.04483 0,-40.52441 -16.09862,-79.3901 -44.75371,-108.04518 C 267.39537,51.41324 228.52967,35.31464 188.00525,35.31462 Z m 0,0.881 c 40.29112,2e-5 78.93205,16.00566 107.42212,44.49577 28.49014,28.49012 44.49578,67.13102 44.49578,107.42212 0,40.29111 -16.00564,78.93201 -44.49578,107.42212 -28.49009,28.49014 -67.131,44.49575 -107.42212,44.49577 -40.2911,-2e-5 -78.932,-16.00563 -107.42211,-44.49577 -28.49012,-28.49007 -44.49576,-67.13101 -44.49578,-107.42212 2e-5,-40.2911 16.00566,-78.932 44.49578,-107.42212 28.49012,-28.49011 67.13101,-44.49575 107.42211,-44.49577 z"
     style="color:#000000;font-style:normal;font-variant:normal;font-weight:normal;font-stretch:normal;font-size:medium;line-height:normal;font-family:sans-serif;font-variant-ligatures:normal;font-variant-position:normal;font-variant-caps:normal;font-variant-numeric:normal;font-variant-alternates:normal;font-variant-east-asian:normal;font-feature-settings:normal;font-variation-settings:normal;text-indent:0;text-align:start;text-decoration:none;text-decoration-line:none;text-decoration-style:solid;text-decoration-color:#000000;letter-spacing:normal;word-spacing:normal;text-transform:none;writing-mode:lr-tb;direction:ltr;text-orientation:mixed;dominant-baseline:auto;baseline-shift:baseline;text-anchor:start;white-space:normal;shape-padding:0;shape-margin:0;inline-size:0;clip-rule:nonzero;display:inline;overflow:visible;visibility:visible;opacity:1;isolation:auto;mix-blend-mode:normal;color-interpolation:sRGB;color-interpolation-filters:linearRGB;solid-color:#000000;solid-opacity:1;vector-effect:none;fill:#000000;fill-opacity:1;fill-rule:nonzero;stroke:none;stroke-width:1.7619;stroke-linecap:square;stroke-linejoin:miter;stroke-miterlimit:4;stroke-dasharray:none;stroke-dashoffset:131.528;stroke-opacity:1;paint-order:stroke fill markers;color-rendering:auto;image-rendering:auto;shape-rendering:auto;text-rendering:auto;enable-background:accumulate;stop-color:#000000"
     id="path1311" />
  <path
     style="color:#000000;font-style:normal;font-variant:normal;font-weight:normal;font-stretch:normal;font-size:medium;line-height:normal;font-family:sans-serif;font-variant-ligatures:normal;font-variant-position:normal;font-variant-caps:normal;font-variant-numeric:normal;font-variant-alternates:normal;font-variant-east-asian:normal;font-feature-settings:normal;font-variation-settings:normal;text-indent:0;text-align:start;text-decoration:none;text-decoration-line:none;text-decoration-style:solid;text-decoration-color:#000000;letter-spacing:normal;word-spacing:normal;text-transform:none;writing-mode:lr-tb;direction:ltr;text-orientation:mixed;dominant-baseline:auto;baseline-shift:baseline;text-anchor:start;white-space:normal;shape-padding:0;shape-margin:0;inline-size:0;clip-rule:nonzero;display:inline;overflow:visible;visibility:visible;opacity:1;isolation:auto;mix-blend-mode:normal;color-interpolation:sRGB;color-interpolation-filters:linearRGB;solid-color:#000000;solid-opacity:1;vector-effect:none;fill:url(#linearGradient1439);fill-opacity:1;fill-rule:nonzero;stroke:none;stroke-width:1.7619;stroke-linecap:square;stroke-linejoin:miter;stroke-miterlimit:4;stroke-dasharray:none;stroke-dashoffset:131.528;stroke-opacity:1;paint-order:stroke fill markers;color-rendering:auto;image-rendering:auto;shape-rendering:auto;text-rendering:auto;enable-background:accumulate;stop-color:#000000"
     d="m 188.00526,36.19563 c -40.29111,2e-5 -78.932,16.00566 -107.42212,44.49577 -28.49012,28.49012 -44.49576,67.13101 -44.49577,107.42212 1e-5,40.29111 16.00565,78.93202 44.49577,107.42212 28.49011,28.49012 67.13101,44.49576 107.42212,44.49578 40.2911,-2e-5 78.932,-16.00566 107.42211,-44.49578 28.49012,-28.49013 44.49579,-67.13101 44.49579,-107.42212 0,-40.2911 -16.00567,-78.932 -44.49579,-107.42212 C 266.93728,52.20129 228.29636,36.19565 188.00526,36.19563 Z m 0,18.47693 c 12.35346,0 24.52959,1.71527 36.21225,5.00966 L 187.76997,142.70844 150.2999,60.11246 c 12.13671,-3.57547 24.82469,-5.4399 37.70536,-5.4399 z m 61.57512,15.05695 c 11.9817,6.23165 23.05531,14.30052 32.78166,24.02686 5.94879,5.94878 11.27641,12.40234 15.94434,19.25851 l -67.3317,150.70501 -33.58908,-73.15903 h -10.18421 -10.18386 l -31.8207,72.58161 -67.28287,-150.43789 c 4.61718,-6.74088 9.87499,-13.08904 15.73415,-18.94821 9.54978,-9.54978 20.39926,-17.50038 32.131,-23.68437 l 51.77445,113.9776 h 19.85291 z m 63.21896,71.13768 c 5.66223,14.95533 8.64688,30.94666 8.64688,47.24633 0,35.39071 -14.05918,69.33175 -39.08418,94.35679 -12.85827,12.85826 -28.07096,22.82038 -44.62421,29.4689 z M 62.546,142.66068 137.69418,311.70393 C 121.36519,305.05659 106.35667,295.17852 93.64846,282.47031 68.62344,257.44527 54.5643,223.50423 54.56429,188.11352 54.5643,172.46373 57.31527,157.098 62.546,142.66068 Z m 124.65539,88.94094 38.76715,84.4362 c -12.21479,3.62533 -24.9913,5.51665 -37.96328,5.51667 -13.40132,-2e-5 -26.59421,-2.01793 -39.1744,-5.88183 z"
     id="path1313" />
  <path
     id="path377"
     d="m 269.16899,316.53313 c -1.04773,0.66216 -2.10295,1.31131 -3.16558,1.94705 1.06263,-0.63574 2.11785,-1.28489 3.16558,-1.94705 z"
     style="overflow:visible;opacity:1;fill:#00ff00;stroke-width:0.475781;stroke-linecap:square;stroke-dashoffset:131.528;paint-order:stroke fill markers" />
  <path
     id="path375"
     d="m 106.84151,316.53313 c 1.04774,0.66216 2.10296,1.31131 3.16559,1.94705 -1.06263,-0.63574 -2.11785,-1.28489 -3.16559,-1.94705 z"
     style="overflow:visible;opacity:1;fill:#00ff00;stroke-width:0.475781;stroke-linecap:square;stroke-dashoffset:131.528;paint-order:stroke fill markers" />
  <path
     id="path373"
     d="m 149.82897,313.48572 -0.99811,2.18694 c 12.58019,3.8639 25.77307,5.88179 39.17439,5.88182 12.97199,-3e-5 25.74849,-1.89135 37.96329,-5.51669 l -1.00519,-2.18905 c -11.89751,3.49748 -24.33364,5.32066 -36.9581,5.32067 -13.05581,-1e-5 -25.91079,-1.94844 -38.17628,-5.68369 z"
     style="overflow:visible;opacity:1;fill:url(#linearGradient955);fill-opacity:1;stroke-width:0.475781;stroke-linecap:square;stroke-dashoffset:131.528;paint-order:stroke fill markers" />
  <path
     id="path371"
     d="m 273.83192,313.4652 c -1.02442,0.7014 -2.05685,1.38958 -3.09694,2.06487 1.04009,-0.67529 2.07252,-1.36347 3.09694,-2.06487 z"
     style="overflow:visible;opacity:1;fill:#00ff00;stroke-width:0.475781;stroke-linecap:square;stroke-dashoffset:131.528;paint-order:stroke fill markers" />
  <path
     id="path369"
     d="m 102.17859,313.4652 c 1.02441,0.7014 2.05685,1.38958 3.09694,2.06487 -1.04009,-0.67529 -2.07253,-1.36347 -3.09694,-2.06487 z"
     style="overflow:visible;opacity:1;fill:#00ff00;stroke-width:0.475781;stroke-linecap:square;stroke-dashoffset:131.528;paint-order:stroke fill markers" />
  <path
     id="path367"
     d="m 278.38729,310.22143 c -0.99993,0.74014 -2.00838,1.46726 -3.02477,2.18162 1.01639,-0.71436 2.02484,-1.44148 3.02477,-2.18162 z"
     style="overflow:visible;opacity:1;fill:#00ff00;stroke-width:0.475781;stroke-linecap:square;stroke-dashoffset:131.528;paint-order:stroke fill markers" />
  <path
     id="path365"
     d="m 97.62322,310.22143 c 0.99993,0.74014 2.00838,1.46726 3.02476,2.18162 -1.01638,-0.71436 -2.02483,-1.44148 -3.02476,-2.18162 z"
     style="overflow:visible;opacity:1;fill:#00ff00;stroke-width:0.475781;stroke-linecap:square;stroke-dashoffset:131.528;paint-order:stroke fill markers" />
  <path
     id="path363"
     d="m 312.29479,275.47078 c -0.71436,1.01639 -1.44147,2.02448 -2.18163,3.02441 0.74011,-0.99985 1.46733,-2.0081 2.18163,-3.02441 z"
     style="overflow:visible;opacity:1;fill:#00ff00;stroke-width:0.475781;stroke-linecap:square;stroke-dashoffset:131.528;paint-order:stroke fill markers" />
  <path
     id="path361"
     d="m 315.42181,270.84324 c -0.67529,1.04009 -1.36347,2.07252 -2.06486,3.09694 0.70139,-1.02442 1.38957,-2.05685 2.06486,-3.09694 z"
     style="overflow:visible;opacity:1;fill:#00ff00;stroke-width:0.475781;stroke-linecap:square;stroke-dashoffset:131.528;paint-order:stroke fill markers" />
  <path
     id="path359"
     d="m 62.546,142.66067 c -5.23073,14.43733 -7.98171,29.80305 -7.98171,45.45284 1e-5,35.39072 14.05915,69.33176 39.08417,94.35679 12.70821,12.70822 27.71673,22.58628 44.04572,29.23361 l -1.41066,-3.17301 C 121.14019,302.02663 107.21445,292.66373 95.33474,280.78402 70.75703,256.20634 56.94938,222.87165 56.94936,188.11351 c 1e-5,-14.51926 2.41111,-28.78939 7.00836,-42.27735 z"
     style="overflow:visible;opacity:1;fill:url(#linearGradient935);fill-opacity:1;stroke-width:0.475781;stroke-linecap:square;stroke-dashoffset:131.528;paint-order:stroke fill markers" />
  <path
     id="path357"
     d="m 312.79934,140.86718 -1.38095,3.14719 c 5.01061,14.02163 7.64277,28.92469 7.64277,44.09914 0,34.75814 -13.80767,68.09279 -38.3854,92.67051 -12.03794,12.03796 -26.17744,21.49009 -41.55521,28.00375 l -1.38271,3.15143 c 16.55324,-6.64852 31.76593,-16.61064 44.62421,-29.4689 25.02499,-25.02503 39.08417,-58.96607 39.08417,-94.35679 0,-16.29967 -2.98466,-32.291 -8.64688,-47.24633 z"
     style="overflow:visible;opacity:1;fill:url(#linearGradient959);fill-opacity:1;stroke-width:0.475781;stroke-linecap:square;stroke-dashoffset:131.528;paint-order:stroke fill markers" />
  <path
     id="path355"
     d="m 313.35695,102.28685 c 0.70139,1.02441 1.38957,2.05685 2.06486,3.09694 -0.67529,-1.04009 -1.36347,-2.07253 -2.06486,-3.09694 z"
     style="overflow:visible;opacity:1;fill:#00ff00;stroke-width:0.475781;stroke-linecap:square;stroke-dashoffset:131.528;paint-order:stroke fill markers" />
  <path
     id="path353"
     d="m 310.11316,97.73148 c 0.74016,0.99993 1.46727,2.00838 2.18163,3.02476 -0.71436,-1.01638 -1.44147,-2.02483 -2.18163,-3.02476 z"
     style="overflow:visible;opacity:1;fill:#00ff00;stroke-width:0.475781;stroke-linecap:square;stroke-dashoffset:131.528;paint-order:stroke fill markers" />
  <path
     d="m 125.77911,70.07199 c -11.73174,6.18399 -22.58122,14.1346 -32.131,23.68438 -5.85916,5.85916 -11.11697,12.20732 -15.73415,18.9482 l 3.67366,0.10615 c 4.21347,-6.00142 8.49706,-12.11765 13.74712,-17.36772 8.47634,-8.47633 18.73487,-15.38621 29.0514,-21.10931 z"
     style="overflow:visible;opacity:1;fill:#342d2b;fill-opacity:1;stroke-width:0.475781;stroke-linecap:square;stroke-dashoffset:131.528;paint-order:stroke fill markers"
     id="path351" />
  <path
     d="m 249.58038,69.7295 1.32433,3.58237 c 10.84203,5.91585 21.03668,13.32457 29.91541,22.20331 5.44632,5.44632 10.6412,11.12818 15.06403,17.30757 l 2.42221,0.19212 c -4.66793,-6.85616 -9.99553,-13.30973 -15.94431,-19.2585 -9.72636,-9.72634 -20.79997,-17.79522 -32.78167,-24.02687 z"
     style="overflow:visible;opacity:1;fill:#272223;fill-opacity:1;stroke-width:0.475781;stroke-linecap:square;stroke-dashoffset:131.528;paint-order:stroke fill markers"
     id="path349" />
  <path
     id="path347"
     d="m 272.28929,61.71984 c 1.03232,0.68836 2.05685,1.38977 3.07323,2.10413 -1.01638,-0.71436 -2.04091,-1.41577 -3.07323,-2.10413 z"
     style="overflow:visible;opacity:1;fill:#00ff00;stroke-width:0.475781;stroke-linecap:square;stroke-dashoffset:131.528;paint-order:stroke fill markers" />
  <path
     id="path345"
     d="m 103.72122,61.71984 c -1.03232,0.68836 -2.05685,1.38977 -3.07324,2.10413 1.01639,-0.71436 2.04092,-1.41577 3.07324,-2.10413 z"
     style="overflow:visible;opacity:1;fill:#00ff00;stroke-width:0.475781;stroke-linecap:square;stroke-dashoffset:131.528;paint-order:stroke fill markers" />
  <path
     d="m 188.00525,54.67255 c -12.88066,10e-6 -25.56865,1.86443 -37.70535,5.4399 l 0.99457,2.19224 c 11.82241,-3.45014 24.17387,-5.19612 36.71078,-5.19613 11.55714,1e-5 24.32394,1.48129 35.40202,4.41915 l 0.81024,-1.8455 c -9.85725,-2.77964 -20.06591,-4.43494 -30.43587,-4.88441 -0.76815,-0.0333 -1.53704,-0.0599 -2.30688,-0.08 -1.15476,-0.03 -2.31137,-0.0453 -3.46951,-0.0453 z"
     style="overflow:visible;opacity:1;fill:#342d2b;fill-opacity:1;stroke-width:0.475781;stroke-linecap:square;stroke-dashoffset:131.528;paint-order:stroke fill markers"
     id="path343" />
  <path
     id="path341"
     d="m 199.28664,36.61489 c 1.2471,0.0928 2.49176,0.20077 3.73381,0.3241 -1.24205,-0.12333 -2.48671,-0.23128 -3.73381,-0.3241 z"
     style="overflow:visible;opacity:1;fill:#00ff00;stroke-width:0.475781;stroke-linecap:square;stroke-dashoffset:131.528;paint-order:stroke fill markers" />
  <path
     id="path112-0-6-0-9"
     d="m 176.72386,36.61489 c -1.24709,0.0928 -2.49175,0.20077 -3.73381,0.3241 1.24206,-0.12333 2.48672,-0.23128 3.73381,-0.3241 z"
     style="overflow:visible;opacity:1;fill:#00ff00;stroke-width:0.475781;stroke-linecap:square;stroke-dashoffset:131.528;paint-order:stroke fill markers" />
  <path
     sodipodi:nodetypes="ccccc"
     id="path471"
     d="M 253.67544,80.80674 249.58038,69.7295 197.40647,184.0496 c 3.13007,-0.47738 6.58352,-2.6e-4 9.87531,0 z"
     style="opacity:1;fill:#bfbbb9;fill-opacity:1;stroke:none;stroke-width:0.181153px;stroke-linecap:butt;stroke-linejoin:miter;stroke-opacity:1" />
  <path
     id="path482"
     d="M 122.03823,81.51842 125.77911,70.072 177.55356,184.0496 125.80723,70.59604 Z"
     style="opacity:1;fill:#364963;fill-opacity:1;stroke:none;stroke-width:0.181153px;stroke-linecap:butt;stroke-linejoin:miter;stroke-opacity:1" />
  <path
     id="path484"
     d="m 177.55356,184.0496 h -10.15518 l -45.36015,-102.53118 3.769,-10.92238 z"
     style="opacity:1;fill:#bfbbb9;fill-opacity:1;stroke:none;stroke-width:0.181153px;stroke-linecap:butt;stroke-linejoin:miter;stroke-opacity:1" />
  <path
     sodipodi:nodetypes="ccccccc"
     d="m 77.91396,112.70457 67.28287,150.43788 31.8207,-72.5816 h -2.70704 L 145.01815,262.13443 81.58762,112.81072 Z"
     style="opacity:1;fill:url(#linearGradient933);fill-opacity:1;stroke:none;stroke-width:0.181153px;stroke-linecap:butt;stroke-linejoin:miter;stroke-opacity:1"
     id="path1333" />
  <path
     d="m 81.58762,112.81072 63.43053,149.32371 29.29234,-71.57358 h -8.148 L 144.82532,239.9651 87.7164,112.98762 Z"
     style="opacity:1;fill:#ffffff;fill-opacity:1;stroke:none;stroke-width:0.181153px;stroke-linecap:butt;stroke-linejoin:miter;stroke-opacity:1"
     id="path1339" />
  <path
     d="m 296.84369,112.89882 -66.46803,147.60241 -31.92685,-69.94038 h -1.06321 l 33.58907,73.15903 67.33169,-150.70501 z"
     style="opacity:1;fill:url(#linearGradient925);fill-opacity:1;stroke:none;stroke-width:0.181153px;stroke-linecap:butt;stroke-linejoin:miter;stroke-opacity:1"
     id="path1349" />
  <path
     d="m 288.02096,112.19862 -57.88625,126.51008 0.52435,21.16309 66.18463,-146.97297 z"
     style="opacity:1;fill:#ffffff;fill-opacity:1;stroke:none;stroke-width:0.181153px;stroke-linecap:butt;stroke-linejoin:miter;stroke-opacity:1"
     id="path1367" />
  <path
     d="m 198.44881,190.56085 31.92685,69.94038 0.2834,-0.62944 -0.52435,-21.16309 -0.37681,0.82333 -21.47586,-48.97118 z"
     style="overflow:visible;opacity:1;fill:url(#linearGradient1447);fill-opacity:1;stroke:none;stroke-width:0.181153px;stroke-linecap:butt;stroke-linejoin:miter;stroke-opacity:1"
     id="path1367-2" />
</svg>
